<?xml version="1.0" encoding="UTF-8"?>
<!DOCTYPE svg PUBLIC "-//W3C//DTD SVG 1.1//EN" "http://www.w3.org/Graphics/SVG/1.1/DTD/svg11.dtd">
<svg xmlns="http://www.w3.org/2000/svg" version="1.1" width="778px" height="1600px" style="shape-rendering:geometricPrecision; text-rendering:geometricPrecision; image-rendering:optimizeQuality; fill-rule:evenodd; clip-rule:evenodd" xmlns:xlink="http://www.w3.org/1999/xlink">
<g><path style="opacity:1" fill="#fefefe" d="M -0.5,-0.5 C 258.833,-0.5 518.167,-0.5 777.5,-0.5C 777.5,532.833 777.5,1066.17 777.5,1599.5C 518.167,1599.5 258.833,1599.5 -0.5,1599.5C -0.5,1066.17 -0.5,532.833 -0.5,-0.5 Z"/></g>
<g><path style="opacity:1" fill="#f1b1b7" d="M 226.5,319.5 C 226.144,325.077 225.144,330.41 223.5,335.5C 223.5,332.833 223.5,330.167 223.5,327.5C 225.973,303.727 234.306,282.393 248.5,263.5C 248.833,264 249.167,264.5 249.5,265C 244.28,273.272 239.447,281.772 235,290.5C 231.541,300.056 228.708,309.723 226.5,319.5 Z"/></g>
<g><path style="opacity:1" fill="#ffeaea" d="M 262.5,279.5 C 262.167,290.167 261.833,300.833 261.5,311.5C 260.834,307.681 260.501,303.681 260.5,299.5C 260.39,292.608 261.056,285.942 262.5,279.5 Z"/></g>
<g><path style="opacity:1" fill="#efb0b3" d="M 221.5,343.5 C 222.167,340.833 222.833,338.167 223.5,335.5C 223.5,337.167 223.5,338.833 223.5,340.5C 223.193,354.37 223.526,368.203 224.5,382C 227.84,386.671 231.173,391.338 234.5,396C 241.182,399.097 248.182,400.43 255.5,400C 266.321,393.333 276.988,386.5 287.5,379.5C 303.952,362.389 319.952,345.056 335.5,327.5C 340.378,321.182 343.711,314.182 345.5,306.5C 335.571,307.798 326.905,311.798 319.5,318.5C 304.495,322.817 290.161,328.484 276.5,335.5C 275.432,334.566 274.099,334.232 272.5,334.5C 279.408,331.046 286.408,327.546 293.5,324C 299.81,323.257 305.81,321.591 311.5,319C 320.05,314.225 328.716,309.725 337.5,305.5C 341.444,304.444 345.444,303.777 349.5,303.5C 348.444,307.168 347.278,310.835 346,314.5C 343.333,319.167 340.667,323.833 338,328.5C 330.295,336.537 322.961,344.87 316,353.5C 307.181,361.919 298.681,370.752 290.5,380C 279.639,387.593 268.639,394.927 257.5,402C 248.771,402.754 240.438,401.254 232.5,397.5C 227.984,392.47 224.484,386.804 222,380.5C 221.5,368.171 221.333,355.838 221.5,343.5 Z"/></g>
<g><path style="opacity:1" fill="#f1a6ac" d="M 262.5,279.5 C 261.056,285.942 260.39,292.608 260.5,299.5C 260.501,303.681 260.834,307.681 261.5,311.5C 261.923,318.5 262.423,325.5 263,332.5C 265.616,335.578 268.782,336.245 272.5,334.5C 274.099,334.232 275.432,334.566 276.5,335.5C 273.496,336.089 270.663,337.089 268,338.5C 264.85,338.022 262.516,336.355 261,333.5C 260.001,322.176 259.168,310.843 258.5,299.5C 259.267,288.836 259.433,278.17 259,267.5C 256.056,265.628 254.889,262.961 255.5,259.5C 258.292,259.452 260.125,260.785 261,263.5C 262.339,268.736 262.839,274.07 262.5,279.5 Z"/></g>
<g><path style="opacity:1" fill="#fae9e8" d="M 226.5,319.5 C 226.666,325.842 226.5,332.175 226,338.5C 225.583,339.756 224.75,340.423 223.5,340.5C 223.5,338.833 223.5,337.167 223.5,335.5C 225.144,330.41 226.144,325.077 226.5,319.5 Z"/></g>
<g><path style="opacity:1" fill="#fbd7d9" d="M 223.5,327.5 C 223.5,330.167 223.5,332.833 223.5,335.5C 222.833,338.167 222.167,340.833 221.5,343.5C 221.334,338.821 221.501,334.155 222,329.5C 222.278,328.584 222.778,327.918 223.5,327.5 Z"/></g>
<g><path style="opacity:1" fill="#fefdfd" d="M 589.5,399.5 C 596.747,408.942 603.914,418.608 611,428.5C 617.242,434.071 622.742,440.238 627.5,447C 634.603,444.768 641.936,442.768 649.5,441C 653.727,439.107 657.393,436.44 660.5,433C 661.944,432.219 663.277,432.386 664.5,433.5C 659.159,442.855 655.492,452.855 653.5,463.5C 651.924,471.532 648.924,479.199 644.5,486.5C 638.403,493.099 632.07,499.599 625.5,506C 618.833,506.837 612.833,505.337 607.5,501.5C 607.719,500.325 607.386,499.325 606.5,498.5C 601.601,494.441 598.101,489.441 596,483.5C 590.071,475.311 584.904,466.644 580.5,457.5C 579.345,453.856 577.678,450.523 575.5,447.5C 573.64,439.671 572.973,431.671 573.5,423.5C 574.174,414.472 578.174,407.472 585.5,402.5C 586.637,401.211 587.97,400.211 589.5,399.5 Z"/></g>
<g><path style="opacity:1" fill="#f0aeb2" d="M 654.5,468.5 C 653.699,466.958 653.366,465.292 653.5,463.5C 655.492,452.855 659.159,442.855 664.5,433.5C 663.277,432.386 661.944,432.219 660.5,433C 657.393,436.44 653.727,439.107 649.5,441C 641.936,442.768 634.603,444.768 627.5,447C 622.742,440.238 617.242,434.071 611,428.5C 603.914,418.608 596.747,408.942 589.5,399.5C 587.97,400.211 586.637,401.211 585.5,402.5C 585.715,400.821 585.048,399.821 583.5,399.5C 583.821,397.952 584.821,397.285 586.5,397.5C 586.248,394.68 586.748,392.014 588,389.5C 589.011,388.663 590.178,388.33 591.5,388.5C 593.282,395.826 596.116,402.826 600,409.5C 605.154,416.602 610.488,423.602 616,430.5C 620.534,434.699 624.701,439.199 628.5,444C 635.796,442.37 643.129,440.37 650.5,438C 654.94,432.781 660.607,430.281 667.5,430.5C 665.577,436.353 663.077,442.02 660,447.5C 657.607,454.486 655.774,461.486 654.5,468.5 Z"/></g>
<g><path style="opacity:1" fill="#f9d9dc" d="M 589.5,399.5 C 588.479,389.093 589.479,388.926 592.5,399C 592.333,399.5 592.167,400 592,400.5C 591.329,399.748 590.496,399.414 589.5,399.5 Z"/></g>
<g><path style="opacity:1" fill="#f5a6a9" d="M 583.5,399.5 C 585.048,399.821 585.715,400.821 585.5,402.5C 578.174,407.472 574.174,414.472 573.5,423.5C 572.833,430.167 572.167,436.833 571.5,443.5C 567.857,436.126 567.024,428.459 569,420.5C 571.475,415.42 574.141,410.42 577,405.5C 578.535,402.706 580.702,400.706 583.5,399.5 Z"/></g>
<g><path style="opacity:1" fill="#f2a8ac" d="M 359.5,440.5 C 351.684,441.492 343.684,441.826 335.5,441.5C 336.263,440.732 337.263,440.232 338.5,440C 345.679,439.179 352.679,439.345 359.5,440.5 Z"/></g>
<g><path style="opacity:1" fill="#f1b5b8" d="M 359.5,440.5 C 362.199,440.466 364.699,441.133 367,442.5C 367.884,444.641 367.384,446.307 365.5,447.5C 364.859,445.704 363.859,444.204 362.5,443C 353.5,442.333 344.5,442.333 335.5,443C 330.405,445.383 325.071,446.883 319.5,447.5C 319.577,446.25 320.244,445.417 321.5,445C 325.996,443.112 330.663,441.945 335.5,441.5C 343.684,441.826 351.684,441.492 359.5,440.5 Z"/></g>
<g><path style="opacity:1" fill="#f6bcbb" d="M 573.5,423.5 C 572.973,431.671 573.64,439.671 575.5,447.5C 573.952,447.821 573.285,448.821 573.5,450.5C 572.076,448.485 571.41,446.152 571.5,443.5C 572.167,436.833 572.833,430.167 573.5,423.5 Z"/></g>
<g><path style="opacity:1" fill="#e8b2b7" d="M 319.5,447.5 C 316.04,450.654 312.04,451.987 307.5,451.5C 307.709,450.914 308.043,450.414 308.5,450C 312.189,449.148 315.856,448.315 319.5,447.5 Z"/></g>
<g><path style="opacity:1" fill="#f5a5a6" d="M 575.5,447.5 C 577.678,450.523 579.345,453.856 580.5,457.5C 580.405,459.786 579.738,461.786 578.5,463.5C 576.598,459.345 574.931,455.011 573.5,450.5C 573.285,448.821 573.952,447.821 575.5,447.5 Z"/></g>
<g><path style="opacity:1" fill="#edafb2" d="M 393.5,447.5 C 405.271,446.315 416.271,448.649 426.5,454.5C 427.833,455.167 427.833,455.833 426.5,456.5C 420.843,454.34 415.177,452.173 409.5,450C 398.797,449.461 388.463,450.961 378.5,454.5C 378.5,453.5 378.5,452.5 378.5,451.5C 383.772,450.689 388.772,449.356 393.5,447.5 Z"/></g>
<g><path style="opacity:1" fill="#efacb0" d="M 207.5,559.5 C 204.947,556.046 203.113,552.046 202,547.5C 199.577,538.306 197.577,528.973 196,519.5C 194.535,496.518 194.202,473.518 195,450.5C 198.011,436.809 201.011,423.143 204,409.5C 206.567,403.931 209.567,398.597 213,393.5C 214.529,392.271 215.696,390.771 216.5,389C 217.448,388.517 218.448,388.351 219.5,388.5C 220.157,391.841 218.824,393.841 215.5,394.5C 211.826,399.844 208.66,405.51 206,411.5C 203.942,424.399 200.942,437.066 197,449.5C 196.173,472.186 196.507,494.853 198,517.5C 200.658,531.635 203.825,545.635 207.5,559.5 Z"/></g>
<g><path style="opacity:1" fill="#f2b0b3" d="M 404.5,499.5 C 403.422,496.598 402.756,493.598 402.5,490.5C 399.833,490.5 397.167,490.5 394.5,490.5C 394.701,493.508 395.034,496.508 395.5,499.5C 395.585,501.333 396.252,502.666 397.5,503.5C 397.5,504.167 397.167,504.5 396.5,504.5C 391.12,504.676 385.787,504.342 380.5,503.5C 373.131,498.923 370.297,492.256 372,483.5C 374.024,473.476 380.024,467.476 390,465.5C 395.267,466.784 400.1,468.951 404.5,472C 409.701,475.935 411.534,481.101 410,487.5C 409.572,492.29 407.738,496.29 404.5,499.5 Z"/></g>
<g><path style="opacity:1" fill="#fcfaf9" d="M 345.5,483.5 C 344.608,481.286 342.942,480.286 340.5,480.5C 337.234,480.8 334.567,482.133 332.5,484.5C 329.494,486.839 326.827,489.506 324.5,492.5C 323.194,491.088 322.36,489.421 322,487.5C 321.501,483.848 321.335,480.182 321.5,476.5C 326.379,474.291 331.545,473.291 337,473.5C 344.564,474.479 352.064,475.979 359.5,478C 360.554,479.388 360.72,480.888 360,482.5C 356.741,487.304 352.241,489.971 346.5,490.5C 346.802,487.941 346.468,485.607 345.5,483.5 Z"/></g>
<g><path style="opacity:1" fill="#f0b2b7" d="M 335.5,457.5 C 335.5,458.167 335.5,458.833 335.5,459.5C 331.433,461.206 328.1,463.873 325.5,467.5C 323.461,468.911 322.461,470.911 322.5,473.5C 328.384,471.934 334.384,471.268 340.5,471.5C 346.426,472.919 352.426,473.919 358.5,474.5C 357.846,469.699 355.512,465.866 351.5,463C 348.626,462.058 345.96,460.891 343.5,459.5C 343.167,458.833 342.833,458.167 342.5,457.5C 357.778,460.927 363.945,470.26 361,485.5C 356.684,490.553 351.184,493.22 344.5,493.5C 345.414,490.272 345.747,486.939 345.5,483.5C 346.468,485.607 346.802,487.941 346.5,490.5C 352.241,489.971 356.741,487.304 360,482.5C 360.72,480.888 360.554,479.388 359.5,478C 352.064,475.979 344.564,474.479 337,473.5C 331.545,473.291 326.379,474.291 321.5,476.5C 321.715,474.821 321.048,473.821 319.5,473.5C 321.865,465.135 327.199,459.801 335.5,457.5 Z"/></g>
<g><path style="opacity:1" fill="#fce7e4" d="M 325.5,467.5 C 325.5,468.833 325.5,470.167 325.5,471.5C 330.645,470.309 335.645,470.309 340.5,471.5C 334.384,471.268 328.384,471.934 322.5,473.5C 322.461,470.911 323.461,468.911 325.5,467.5 Z"/></g>
<g><path style="opacity:1" fill="#fbfbfa" d="M 335.5,459.5 C 338.167,459.5 340.833,459.5 343.5,459.5C 345.96,460.891 348.626,462.058 351.5,463C 355.512,465.866 357.846,469.699 358.5,474.5C 352.426,473.919 346.426,472.919 340.5,471.5C 335.645,470.309 330.645,470.309 325.5,471.5C 325.5,470.167 325.5,468.833 325.5,467.5C 328.1,463.873 331.433,461.206 335.5,459.5 Z"/></g>
<g><path style="opacity:1" fill="#fc9aa7" d="M 335.5,457.5 C 337.833,457.5 340.167,457.5 342.5,457.5C 342.833,458.167 343.167,458.833 343.5,459.5C 340.833,459.5 338.167,459.5 335.5,459.5C 335.5,458.833 335.5,458.167 335.5,457.5 Z"/></g>
<g><path style="opacity:1" fill="#f8989f" d="M 319.5,473.5 C 321.048,473.821 321.715,474.821 321.5,476.5C 320.833,480.167 320.167,483.833 319.5,487.5C 319.5,482.833 319.5,478.167 319.5,473.5 Z"/></g>
<g><path style="opacity:1" fill="#fc969a" d="M 383.5,479.5 C 390.833,479.5 398.167,479.5 405.5,479.5C 398.833,480.167 392.167,480.833 385.5,481.5C 384.833,481.5 384.167,481.5 383.5,481.5C 382.167,480.833 382.167,480.167 383.5,479.5 Z"/></g>
<g><path style="opacity:1" fill="#fef0e9" d="M 378.5,474.5 C 379.138,476.573 380.138,478.573 381.5,480.5C 379.219,481.277 377.052,482.277 375,483.5C 374.873,480.084 376.04,477.084 378.5,474.5 Z"/></g>
<g><path style="opacity:1" fill="#f6b4b4" d="M 405.5,479.5 C 406.043,479.56 406.376,479.893 406.5,480.5C 399.532,481.497 392.532,481.83 385.5,481.5C 392.167,480.833 398.833,480.167 405.5,479.5 Z"/></g>
<g><path style="opacity:1" fill="#fcfaf9" d="M 383.5,481.5 C 384.167,481.5 384.833,481.5 385.5,481.5C 392.532,481.83 399.532,481.497 406.5,480.5C 406.376,479.893 406.043,479.56 405.5,479.5C 398.167,479.5 390.833,479.5 383.5,479.5C 381.933,473.064 384.6,470.397 391.5,471.5C 407.237,472.289 411.737,479.956 405,494.5C 403.943,492.781 403.11,490.947 402.5,489C 399.833,488.333 397.167,488.333 394.5,489C 393.533,493.401 393.2,497.901 393.5,502.5C 380.303,504.129 374.136,498.462 375,485.5C 378.229,484.597 381.062,483.263 383.5,481.5 Z"/></g>
<g><path style="opacity:1" fill="#f4adad" d="M 580.5,457.5 C 584.904,466.644 590.071,475.311 596,483.5C 598.101,489.441 601.601,494.441 606.5,498.5C 607.386,499.325 607.719,500.325 607.5,501.5C 606.798,502.116 605.798,502.116 604.5,501.5C 602.871,500.375 601.371,499.041 600,497.5C 595.779,490.501 591.113,483.835 586,477.5C 582.712,473.256 580.212,468.59 578.5,463.5C 579.738,461.786 580.405,459.786 580.5,457.5 Z"/></g>
<g><path style="opacity:1" fill="#fed8db" d="M 336.5,491.5 C 336.5,490.5 336.5,489.5 336.5,488.5C 336.435,488.062 336.601,487.728 337,487.5C 338.074,488.618 339.24,489.618 340.5,490.5C 339.311,491.429 337.978,491.762 336.5,491.5 Z"/></g>
<g><path style="opacity:1" fill="#f99b9c" d="M 345.5,483.5 C 345.747,486.939 345.414,490.272 344.5,493.5C 344.389,494.117 344.056,494.617 343.5,495C 340.854,495.497 338.187,495.664 335.5,495.5C 330.167,495.167 330.167,494.833 335.5,494.5C 335.263,493.209 335.596,492.209 336.5,491.5C 337.978,491.762 339.311,491.429 340.5,490.5C 339.24,489.618 338.074,488.618 337,487.5C 336.601,487.728 336.435,488.062 336.5,488.5C 335.883,488.611 335.383,488.944 335,489.5C 334.215,487.751 333.382,486.084 332.5,484.5C 334.567,482.133 337.234,480.8 340.5,480.5C 342.942,480.286 344.608,481.286 345.5,483.5 Z"/></g>
<g><path style="opacity:1" fill="#fb9899" d="M 404.5,499.5 C 404.5,499.833 404.5,500.167 404.5,500.5C 402.799,501.211 401.799,502.545 401.5,504.5C 400.292,503.766 398.959,503.433 397.5,503.5C 396.252,502.666 395.585,501.333 395.5,499.5C 395.034,496.508 394.701,493.508 394.5,490.5C 397.167,490.5 399.833,490.5 402.5,490.5C 402.756,493.598 403.422,496.598 404.5,499.5 Z"/></g>
<g><path style="opacity:1" fill="#ffdddf" d="M 380.5,503.5 C 385.787,504.342 391.12,504.676 396.5,504.5C 391.684,505.65 386.684,505.816 381.5,505C 380.944,504.617 380.611,504.117 380.5,503.5 Z"/></g>
<g><path style="opacity:1" fill="#efb3b6" d="M 404.5,500.5 C 403.588,501.738 403.421,503.072 404,504.5C 413.953,515.782 416.12,528.449 410.5,542.5C 416.358,542.178 422.025,542.511 427.5,543.5C 421.5,543.5 415.5,543.5 409.5,543.5C 409.869,541.007 409.203,540.34 407.5,541.5C 410.269,534.418 411.102,527.084 410,519.5C 407.661,514.148 404.828,509.148 401.5,504.5C 401.799,502.545 402.799,501.211 404.5,500.5 Z"/></g>
<g><path style="opacity:1" fill="#f6d1d1" d="M 383.5,543.5 C 382.5,543.5 381.5,543.5 380.5,543.5C 377.686,541.904 374.686,541.404 371.5,542C 372.056,542.383 372.389,542.883 372.5,543.5C 370.952,543.179 370.285,542.179 370.5,540.5C 375.261,540.124 379.595,541.124 383.5,543.5 Z"/></g>
<g><path style="opacity:1" fill="#f39f9f" d="M 427.5,543.5 C 429.167,543.5 430.833,543.5 432.5,543.5C 429.713,544.477 426.713,544.81 423.5,544.5C 418.156,544.334 412.823,544.501 407.5,545C 406.748,545.671 406.414,546.504 406.5,547.5C 405.081,548.451 403.415,548.784 401.5,548.5C 400.508,548.672 399.842,548.338 399.5,547.5C 401.042,546.837 402.709,546.17 404.5,545.5C 403.167,545.167 401.833,544.833 400.5,544.5C 394.845,544.728 389.178,545.061 383.5,545.5C 381.97,545.36 380.97,544.693 380.5,543.5C 381.5,543.5 382.5,543.5 383.5,543.5C 391.174,543.666 398.841,543.5 406.5,543C 407.056,542.617 407.389,542.117 407.5,541.5C 409.203,540.34 409.869,541.007 409.5,543.5C 415.5,543.5 421.5,543.5 427.5,543.5 Z"/></g>
<g><path style="opacity:1" fill="#f0b6ba" d="M 432.5,543.5 C 438.699,544.622 444.699,546.455 450.5,549C 451.708,551.25 453.041,553.417 454.5,555.5C 454.167,555.833 453.833,556.167 453.5,556.5C 451.712,554.209 449.712,552.043 447.5,550C 439.529,547.384 431.529,545.55 423.5,544.5C 426.713,544.81 429.713,544.477 432.5,543.5 Z"/></g>
<g><path style="opacity:1" fill="#edb0b6" d="M 653.5,463.5 C 653.366,465.292 653.699,466.958 654.5,468.5C 652.934,475.696 650.101,482.363 646,488.5C 639.113,495.387 632.279,502.221 625.5,509C 621.482,509.852 617.649,509.352 614,507.5C 613.5,507.833 613,508.167 612.5,508.5C 613.024,510.453 614.024,512.12 615.5,513.5C 614.625,515.773 612.958,516.773 610.5,516.5C 609.7,529.366 606.533,541.699 601,553.5C 594.638,563.874 588.638,574.541 583,585.5C 580.894,588.118 578.394,590.118 575.5,591.5C 588.797,573.251 599.297,553.251 607,531.5C 608.5,526.184 608.667,520.851 607.5,515.5C 608.465,513.671 609.465,511.838 610.5,510C 609.114,506.726 607.114,503.893 604.5,501.5C 605.798,502.116 606.798,502.116 607.5,501.5C 612.833,505.337 618.833,506.837 625.5,506C 632.07,499.599 638.403,493.099 644.5,486.5C 648.924,479.199 651.924,471.532 653.5,463.5 Z"/></g>
<g><path style="opacity:1" fill="#f1aeb2" d="M 321.5,476.5 C 321.335,480.182 321.501,483.848 322,487.5C 322.36,489.421 323.194,491.088 324.5,492.5C 326.827,489.506 329.494,486.839 332.5,484.5C 333.382,486.084 334.215,487.751 335,489.5C 335.383,488.944 335.883,488.611 336.5,488.5C 336.5,489.5 336.5,490.5 336.5,491.5C 335.596,492.209 335.263,493.209 335.5,494.5C 330.167,494.833 330.167,495.167 335.5,495.5C 332.375,496.479 329.042,496.813 325.5,496.5C 324.143,504.849 324.31,513.182 326,521.5C 328.637,531.416 331.803,541.083 335.5,550.5C 349.226,548.727 362.893,546.561 376.5,544C 375.207,543.51 373.873,543.343 372.5,543.5C 372.389,542.883 372.056,542.383 371.5,542C 374.686,541.404 377.686,541.904 380.5,543.5C 380.97,544.693 381.97,545.36 383.5,545.5C 389.178,545.061 394.845,544.728 400.5,544.5C 401.833,544.833 403.167,545.167 404.5,545.5C 402.709,546.17 401.042,546.837 399.5,547.5C 391.519,546.557 383.519,546.39 375.5,547C 363.247,549.359 350.913,551.192 338.5,552.5C 339.54,555.403 340.873,558.236 342.5,561C 342.167,561.5 341.833,562 341.5,562.5C 339.507,558.844 336.84,555.844 333.5,553.5C 327.603,555.261 321.603,556.594 315.5,557.5C 314.494,557.062 314.494,556.396 315.5,555.5C 321.035,553.868 326.701,552.701 332.5,552C 333.022,551.439 333.355,550.772 333.5,550C 324.287,533.135 320.953,515.135 323.5,496C 321.762,493.357 320.428,490.523 319.5,487.5C 320.167,483.833 320.833,480.167 321.5,476.5 Z"/></g>
<g><path style="opacity:1" fill="#fad9d7" d="M 331.5,487.5 C 333.614,488.784 334.614,490.784 334.5,493.5C 332.833,493.5 331.167,493.5 329.5,493.5C 329.259,491.114 329.925,489.114 331.5,487.5 Z"/></g>
<g><path style="opacity:1" fill="#f1adb0" d="M 406.5,547.5 C 421.463,549.931 436.13,553.598 450.5,558.5C 449.5,558.833 448.5,559.167 447.5,559.5C 432.273,554.859 416.94,551.192 401.5,548.5C 403.415,548.784 405.081,548.451 406.5,547.5 Z"/></g>
<g><path style="opacity:1" fill="#f0b5ba" d="M 207.5,559.5 C 211.201,569.136 214.035,579.136 216,589.5C 218.473,594.439 220.639,599.439 222.5,604.5C 219.764,606.969 216.764,607.969 213.5,607.5C 215.737,606.868 217.403,605.535 218.5,603.5C 213.126,589.249 209.459,574.582 207.5,559.5 Z"/></g>
<g><path style="opacity:1" fill="#efb0b2" d="M 394.5,591.5 C 395.5,591.5 396.5,591.5 397.5,591.5C 397.338,593.527 397.505,595.527 398,597.5C 399.299,597.966 400.799,597.966 402.5,597.5C 402.143,601.664 403.81,604.831 407.5,607C 406.167,607.667 404.833,607.667 403.5,607C 402.44,605.702 401.274,604.535 400,603.5C 395.439,605.53 390.939,607.697 386.5,610C 378.316,612.344 369.983,613.011 361.5,612C 353.206,608.646 344.873,605.48 336.5,602.5C 336.5,601.5 336.5,600.5 336.5,599.5C 345.3,603.453 354.3,606.953 363.5,610C 376.188,611.663 387.522,608.663 397.5,601C 394.972,598.377 393.972,595.21 394.5,591.5 Z"/></g>
<g><path style="opacity:1" fill="#efb0b3" d="M 315.5,555.5 C 314.494,556.396 314.494,557.062 315.5,557.5C 279.828,566.503 249.494,584.503 224.5,611.5C 201.756,639.557 190.923,671.891 192,708.5C 195.894,710.085 196.061,711.085 192.5,711.5C 194.329,725.999 199.662,738.999 208.5,750.5C 231.578,776.257 257.912,797.923 287.5,815.5C 283.219,814.864 279.219,813.364 275.5,811C 247.922,793.758 223.756,772.591 203,747.5C 195.739,736.629 191.572,724.629 190.5,711.5C 186.021,711.536 181.688,712.369 177.5,714C 159.111,722.233 142.777,733.4 128.5,747.5C 122.546,757.909 116.213,768.076 109.5,778C 108.668,778.688 108.002,778.521 107.5,777.5C 113.436,767.056 119.602,756.723 126,746.5C 141.196,730.81 159.029,718.977 179.5,711C 182.757,709.957 186.09,709.457 189.5,709.5C 189.5,704.833 189.5,700.167 189.5,695.5C 190.884,690.056 191.55,684.389 191.5,678.5C 181.94,678.108 172.607,678.775 163.5,680.5C 150.092,681.376 138.092,685.876 127.5,694C 119.654,702.039 110.987,709.039 101.5,715C 100.365,715.749 99.365,715.583 98.5,714.5C 110.925,705.579 122.925,696.079 134.5,686C 152.726,678.715 171.726,675.381 191.5,676C 196.215,651.415 206.381,629.582 222,610.5C 247.559,582.798 278.725,564.465 315.5,555.5 Z"/></g>
<g><path style="opacity:1" fill="#fdefee" d="M 189.5,695.5 C 189.777,692.552 189.444,689.719 188.5,687C 189.554,684.618 190.221,682.118 190.5,679.5C 181.494,679.7 172.494,680.034 163.5,680.5C 172.607,678.775 181.94,678.108 191.5,678.5C 191.55,684.389 190.884,690.056 189.5,695.5 Z"/></g>
<g><path style="opacity:1" fill="#eeb2b6" d="M 575.5,591.5 C 567.557,599.298 557.89,603.632 546.5,604.5C 546.281,605.675 546.614,606.675 547.5,607.5C 560.011,617.161 570.178,628.827 578,642.5C 587.072,660.214 593.238,678.881 596.5,698.5C 610.346,700.759 622.68,706.259 633.5,715C 644.735,724.904 654.568,736.07 663,748.5C 666.441,753.357 668.108,758.69 668,764.5C 657.223,739.717 640.056,720.55 616.5,707C 610.257,703.604 603.591,701.438 596.5,700.5C 598.097,724.765 594.264,748.099 585,770.5C 570.429,809.076 543.263,833.576 503.5,844C 479.592,849.292 455.592,850.792 431.5,848.5C 444.344,848.829 457.011,848.495 469.5,847.5C 489.761,845.018 509.428,840.185 528.5,833C 548.664,822.169 564.164,806.669 575,786.5C 584.5,767.839 590.833,748.172 594,727.5C 594.5,718.506 594.666,709.506 594.5,700.5C 591.545,699.841 588.545,699.508 585.5,699.5C 585.703,694.964 588.036,692.298 592.5,691.5C 588.03,669.19 579.53,648.523 567,629.5C 559.626,621.958 552.126,614.625 544.5,607.5C 542.929,606.691 541.262,606.357 539.5,606.5C 539.649,605.448 539.483,604.448 539,603.5C 512.055,584.778 482.888,570.444 451.5,560.5C 453.421,559.359 455.421,559.192 457.5,560C 487.84,570.92 516.34,585.42 543,603.5C 549.558,601.869 556.058,600.036 562.5,598C 566.751,595.56 571.085,593.393 575.5,591.5 Z"/></g>
<g><path style="opacity:1" fill="#fef7f0" d="M 590.5,693.5 C 591.5,693.5 592.5,693.5 593.5,693.5C 593.5,694.833 593.5,696.167 593.5,697.5C 588.831,698.01 587.831,696.677 590.5,693.5 Z"/></g>
<g><path style="opacity:1" fill="#f0afb3" d="M 143.5,815.5 C 143.954,812.86 145.121,810.527 147,808.5C 162.221,792.62 179.721,779.786 199.5,770C 203.167,769.333 206.833,769.333 210.5,770C 204.014,771.538 197.681,773.538 191.5,776C 187.411,779.095 183.077,781.761 178.5,784C 166.022,793.647 154.355,804.147 143.5,815.5 Z"/></g>
<g><path style="opacity:1" fill="#efb3b8" d="M 587.5,771.5 C 588.833,771.5 590.167,771.5 591.5,771.5C 589.154,782.679 592.487,791.846 601.5,799C 604.997,801.583 608.664,803.916 612.5,806C 626.216,811.015 639.883,816.015 653.5,821C 655.26,821.965 655.594,823.132 654.5,824.5C 640.886,818.537 626.886,813.37 612.5,809C 604.377,804.687 597.544,798.854 592,791.5C 588.676,785.078 587.176,778.411 587.5,771.5 Z"/></g>
<g><path style="opacity:1" fill="#f0b4b7" d="M 143.5,815.5 C 141.19,821.454 138.356,827.121 135,832.5C 133.546,838.421 132.38,844.421 131.5,850.5C 130.364,844.818 130.53,839.151 132,833.5C 134.293,828.856 136.627,824.19 139,819.5C 139.876,817.365 141.376,816.031 143.5,815.5 Z"/></g>
<g><path style="opacity:1" fill="#efabae" d="M 287.5,815.5 C 345.555,839.421 406.222,850.088 469.5,847.5C 457.011,848.495 444.344,848.829 431.5,848.5C 387.765,847.945 345.432,840.111 304.5,825C 299.197,822.684 293.864,820.351 288.5,818C 287.748,817.329 287.414,816.496 287.5,815.5 Z"/></g>
<g><path style="opacity:1" fill="#efb1b6" d="M 551.5,824.5 C 553.017,824.511 554.184,825.177 555,826.5C 568.267,842.428 579.934,859.428 590,877.5C 595.168,882.652 601.002,886.652 607.5,889.5C 607,889.833 606.5,890.167 606,890.5C 602.326,889.413 598.826,887.913 595.5,886C 586.724,877.55 579.891,867.717 575,856.5C 566.39,846.226 558.557,835.559 551.5,824.5 Z"/></g>
</svg>
