<?xml version="1.0" encoding="UTF-8" standalone="no"?>
<!-- Created with Inkscape (http://www.inkscape.org/) -->

<svg
   width="210mm"
   height="297mm"
   viewBox="0 0 210 297"
   version="1.1"
   id="svg1"
   inkscape:version="1.3 (0e150ed6c4, 2023-07-21)"
   sodipodi:docname="sexycrab.svg"
   xmlns:inkscape="http://www.inkscape.org/namespaces/inkscape"
   xmlns:sodipodi="http://sodipodi.sourceforge.net/DTD/sodipodi-0.dtd"
   xmlns="http://www.w3.org/2000/svg"
   xmlns:svg="http://www.w3.org/2000/svg">
  <sodipodi:namedview
     id="namedview1"
     pagecolor="#ffffff"
     bordercolor="#000000"
     borderopacity="0.25"
     inkscape:showpageshadow="2"
     inkscape:pageopacity="0.0"
     inkscape:pagecheckerboard="true"
     inkscape:deskcolor="#d1d1d1"
     inkscape:document-units="mm"
     inkscape:lockguides="false"
     inkscape:zoom="0.91046046"
     inkscape:cx="267.99626"
     inkscape:cy="566.19702"
     inkscape:window-width="1920"
     inkscape:window-height="991"
     inkscape:window-x="-9"
     inkscape:window-y="-9"
     inkscape:window-maximized="1"
     inkscape:current-layer="layer12" />
  <defs
     id="defs1">
    <inkscape:path-effect
       effect="powerclip"
       id="path-effect26"
       is_visible="true"
       lpeversion="1"
       inverse="true"
       flatten="false"
       hide_clip="false"
       message="Use fill-rule evenodd on &lt;b&gt;fill and stroke&lt;/b&gt; dialogue if no flatten result after convert clip to paths." />
    <inkscape:path-effect
       effect="powerclip"
       id="path-effect24"
       is_visible="true"
       lpeversion="1"
       inverse="true"
       flatten="false"
       hide_clip="false"
       message="Use fill-rule evenodd on &lt;b&gt;fill and stroke&lt;/b&gt; dialogue if no flatten result after convert clip to paths." />
    <inkscape:path-effect
       effect="powerclip"
       id="path-effect21"
       is_visible="true"
       lpeversion="1"
       inverse="true"
       flatten="false"
       hide_clip="false"
       message="Use fill-rule evenodd on &lt;b&gt;fill and stroke&lt;/b&gt; dialogue if no flatten result after convert clip to paths." />
    <inkscape:path-effect
       effect="powerclip"
       id="path-effect16"
       is_visible="true"
       lpeversion="1"
       inverse="true"
       flatten="false"
       hide_clip="false"
       message="Use fill-rule evenodd on &lt;b&gt;fill and stroke&lt;/b&gt; dialogue if no flatten result after convert clip to paths." />
    <inkscape:path-effect
       effect="powerclip"
       id="path-effect13"
       is_visible="true"
       lpeversion="1"
       inverse="true"
       flatten="false"
       hide_clip="false"
       message="Use fill-rule evenodd on &lt;b&gt;fill and stroke&lt;/b&gt; dialogue if no flatten result after convert clip to paths." />
    <clipPath
       clipPathUnits="userSpaceOnUse"
       id="clipPath13">
      <path
         style="display:none;fill:#000000;fill-opacity:1;stroke:#000000;stroke-width:2.38125;stroke-opacity:0"
         d="m 103.8453,20.269683 27.02616,4.068455 -25.28254,7.265096 z"
         id="path13" />
      <path
         id="lpe_path-effect13"
         style="fill:#000000;fill-opacity:1;stroke:#000000;stroke-width:2.38125;stroke-opacity:0"
         class="powerclip"
         d="M 99.398292,-0.45113826 H 163.21642 V 47.964993 H 99.398292 Z m 4.447008,20.72082126 1.74362,11.333551 25.28254,-7.265096 z" />
    </clipPath>
    <clipPath
       clipPathUnits="userSpaceOnUse"
       id="clipath_lpe_path-effect16">
      <path
         style="display:block;fill:#000000;fill-opacity:1;stroke:#000000;stroke-width:2.38125;stroke-opacity:0"
         d="m 103.8453,20.269683 27.02616,4.068455 -25.28254,7.265096 z"
         id="path16" />
    </clipPath>
    <clipPath
       clipPathUnits="userSpaceOnUse"
       id="clipPath20">
      <path
         style="display:none;fill:#000000;fill-opacity:1;stroke:#000000;stroke-width:2.38125;stroke-opacity:0"
         d="m 105.66792,20.310914 c 10.09222,-2.972065 34.0186,4.272182 34.01829,4.272444 -10.81819,2.830548 -25.14706,6.792708 -35.36259,7.91769 z"
         id="path21"
         sodipodi:nodetypes="cccc" />
      <path
         id="lpe_path-effect21"
         style="fill:#000000;fill-opacity:1;stroke:#000000;stroke-width:2.38125;stroke-opacity:0"
         class="powerclip"
         d="M 99.398292,-0.45113826 H 163.21642 V 47.964993 H 99.398292 Z m 6.269628,20.76205226 -1.3443,12.190134 c 10.21553,-1.124982 24.5444,-5.087142 35.36259,-7.91769 3.1e-4,-2.62e-4 -23.92607,-7.244509 -34.01829,-4.272444 z" />
    </clipPath>
    <clipPath
       clipPathUnits="userSpaceOnUse"
       id="clipath_lpe_path-effect24">
      <path
         style="display:none;fill:#000000;fill-opacity:1;stroke:#000000;stroke-width:2.38125;stroke-opacity:0"
         d="m 105.66792,20.310914 c 10.09222,-2.972065 34.0186,4.272182 34.01829,4.272444 -10.81819,2.830548 -25.14706,6.792708 -35.36259,7.91769 z"
         id="path26"
         sodipodi:nodetypes="cccc" />
      <path
         id="lpe_path-effect24"
         style="fill:#000000;fill-opacity:1;stroke:#000000;stroke-width:2.38125;stroke-opacity:0"
         class="powerclip"
         d="M 99.398292,-0.45113826 H 163.21642 V 47.964993 H 99.398292 Z m 6.269628,20.76205226 -1.3443,12.190134 c 10.21553,-1.124982 24.5444,-5.087142 35.36259,-7.91769 3.1e-4,-2.62e-4 -23.92607,-7.244509 -34.01829,-4.272444 z" />
    </clipPath>
    <clipPath
       clipPathUnits="userSpaceOnUse"
       id="clipath_lpe_path-effect26">
      <path
         style="display:none;fill:#000000;fill-opacity:1;stroke:#000000;stroke-width:2.38125;stroke-opacity:0"
         d="m 105.66792,20.310914 c 10.09222,-2.972065 34.0186,4.272182 34.01829,4.272444 -10.81819,2.830548 -25.14706,6.792708 -35.36259,7.91769 z"
         id="path27"
         sodipodi:nodetypes="cccc" />
      <path
         id="lpe_path-effect26"
         style="fill:#000000;fill-opacity:1;stroke:#000000;stroke-width:2.38125;stroke-opacity:0"
         class="powerclip"
         d="M 99.398292,-0.45113826 H 163.21642 V 47.964993 H 99.398292 Z m 6.269628,20.76205226 -1.3443,12.190134 c 10.21553,-1.124982 24.5444,-5.087142 35.36259,-7.91769 3.1e-4,-2.62e-4 -23.92607,-7.244509 -34.01829,-4.272444 z" />
    </clipPath>
  </defs>
  <g
     inkscape:label="Layer 1"
     id="layer1"
     style="display:inline">
    <g
       inkscape:groupmode="layer"
       id="layer6"
       inkscape:label="crab"
       style="display:inline">
      <g
         inkscape:groupmode="layer"
         id="layer2"
         inkscape:label="legs"
         style="display:inline"
         transform="translate(1.6439037,41.919546)">
        <g
           inkscape:groupmode="layer"
           id="g7"
           inkscape:label="right"
           style="display:inline"
           transform="matrix(-1.1767027,0,0,1.1767027,222.95055,-34.991004)">
          <path
             style="display:inline;fill:#b03a29;fill-opacity:1;stroke:#45a635;stroke-width:2.19363;stroke-opacity:0"
             d="m 71.613769,165.34091 c -3.103734,1.15884 -6.02745,2.77574 -9.364852,3.38354 -1.44212,0.25079 -2.708822,1.10582 -3.402636,2.24253 -1.144184,1.69928 -2.505411,3.27406 -3.9377,4.79118 -2.292525,2.41452 -4.267892,5.15264 -5.171933,8.22638 -0.999059,3.3336 -0.66672,7.04187 1.299536,10.05953 0.681254,1.02933 1.510634,1.99173 2.52581,2.78384 0.966989,0.38096 2.187374,-0.47797 1.995741,-1.39139 0.07479,-2.77065 -1.547664,-5.34151 -1.409096,-8.11701 0.21226,-2.17586 1.514277,-4.1276 3.031386,-5.80122 2.039395,-2.33652 4.386512,-4.45544 6.924731,-6.37293 1.023426,-0.77302 2.015304,-1.60294 2.721663,-2.62492 1.09485,-1.43728 2.141721,-2.90298 3.284744,-4.31155 0.640387,-0.8229 1.291597,-1.64028 1.880282,-2.49312 0.02668,-0.18739 -0.153273,-0.39236 -0.377676,-0.37486 z"
             id="path5" />
          <path
             style="display:inline;fill:#b03a29;fill-opacity:1;stroke:#45a635;stroke-width:2.54267;stroke-opacity:0"
             d="m 66.051077,160.35348 c -3.578919,0.16438 -7.16215,0.94097 -10.752985,0.3622 -1.546778,-0.26462 -3.161627,0.25523 -4.31575,1.33083 -1.832545,1.56636 -3.832459,2.90091 -5.880326,4.13956 -3.272301,1.96627 -6.357174,4.43897 -8.503495,7.72569 -2.34641,3.55733 -3.509304,8.07609 -2.755618,12.41295 0.267658,1.48343 0.710828,2.94524 1.40894,4.27776 0.815686,0.82712 2.385598,0.28513 2.561988,-0.87065 1.192751,-3.25053 0.603469,-6.92478 1.862104,-10.15626 1.090606,-2.49298 3.183231,-4.29676 5.379285,-5.68765 2.987045,-1.97244 6.194799,-3.56757 9.512854,-4.84993 1.337806,-0.51694 2.666961,-1.11346 3.787356,-2.04838 1.677401,-1.27543 3.318177,-2.60315 5.032281,-3.82582 0.973939,-0.72497 1.956523,-1.43918 2.890723,-2.21968 0.102344,-0.21146 0.0041,-0.52406 -0.22737,-0.59064 z"
             id="path6" />
          <path
             style="display:inline;fill:#b03a29;fill-opacity:1;stroke:#45a635;stroke-width:3.01602;stroke-opacity:0"
             d="m 65.158514,154.88636 c -3.887892,-1.26191 -8.028969,-1.81327 -11.627848,-3.94458 -1.544317,-0.93535 -3.479246,-0.98677 -5.148204,-0.20402 -2.592558,1.07824 -5.269689,1.81883 -7.959082,2.42837 -4.292131,0.95891 -8.589778,2.58312 -12.215844,5.53538 -3.949585,3.18588 -7.025903,7.9708 -7.98207,13.32227 -0.316561,1.83447 -0.436892,3.71507 -0.232564,5.54876 0.535074,1.29343 2.431302,1.30031 3.088903,0.0274 2.593268,-3.29736 3.455931,-7.81121 6.111796,-11.05962 2.176631,-2.45751 5.143273,-3.70637 8.052695,-4.43286 3.990075,-1.08191 8.062601,-1.63525 12.125903,-1.77993 1.638239,-0.0582 3.299556,-0.21253 4.875389,-0.84532 2.308783,-0.80275 4.599691,-1.68121 6.926253,-2.4077 1.334214,-0.44798 2.673283,-0.87993 3.987619,-1.40867 0.195126,-0.20444 0.21719,-0.60801 -0.0029,-0.77944 z"
             id="path7" />
        </g>
        <g
           inkscape:groupmode="layer"
           id="g10"
           inkscape:label="left"
           style="display:inline"
           transform="matrix(1.1767027,0,0,1.1767027,-11.685294,-33.537984)">
          <path
             style="display:inline;fill:#b03a29;fill-opacity:1;stroke:#45a635;stroke-width:2.19363;stroke-opacity:0"
             d="m 71.613769,165.34091 c -3.103734,1.15884 -6.02745,2.77574 -9.364852,3.38354 -1.44212,0.25079 -2.708822,1.10582 -3.402636,2.24253 -1.144184,1.69928 -2.505411,3.27406 -3.9377,4.79118 -2.292525,2.41452 -4.267892,5.15264 -5.171933,8.22638 -0.999059,3.3336 -0.66672,7.04187 1.299536,10.05953 0.681254,1.02933 1.510634,1.99173 2.52581,2.78384 0.966989,0.38096 2.187374,-0.47797 1.995741,-1.39139 0.07479,-2.77065 -1.547664,-5.34151 -1.409096,-8.11701 0.21226,-2.17586 1.514277,-4.1276 3.031386,-5.80122 2.039395,-2.33652 4.386512,-4.45544 6.924731,-6.37293 1.023426,-0.77302 2.015304,-1.60294 2.721663,-2.62492 1.09485,-1.43728 2.141721,-2.90298 3.284744,-4.31155 0.640387,-0.8229 1.291597,-1.64028 1.880282,-2.49312 0.02668,-0.18739 -0.153273,-0.39236 -0.377676,-0.37486 z"
             id="path8" />
          <path
             style="display:inline;fill:#b03a29;fill-opacity:1;stroke:#45a635;stroke-width:2.54267;stroke-opacity:0"
             d="m 66.051077,160.35348 c -3.578919,0.16438 -7.16215,0.94097 -10.752985,0.3622 -1.546778,-0.26462 -3.161627,0.25523 -4.31575,1.33083 -1.832545,1.56636 -3.832459,2.90091 -5.880326,4.13956 -3.272301,1.96627 -6.357174,4.43897 -8.503495,7.72569 -2.34641,3.55733 -3.509304,8.07609 -2.755618,12.41295 0.267658,1.48343 0.710828,2.94524 1.40894,4.27776 0.815686,0.82712 2.385598,0.28513 2.561988,-0.87065 1.192751,-3.25053 0.603469,-6.92478 1.862104,-10.15626 1.090606,-2.49298 3.183231,-4.29676 5.379285,-5.68765 2.987045,-1.97244 6.194799,-3.56757 9.512854,-4.84993 1.337806,-0.51694 2.666961,-1.11346 3.787356,-2.04838 1.677401,-1.27543 3.318177,-2.60315 5.032281,-3.82582 0.973939,-0.72497 1.956523,-1.43918 2.890723,-2.21968 0.102344,-0.21146 0.0041,-0.52406 -0.22737,-0.59064 z"
             id="path9" />
          <path
             style="display:inline;fill:#b03a29;fill-opacity:1;stroke:#45a635;stroke-width:3.01602;stroke-opacity:0"
             d="m 65.158514,154.88636 c -3.887892,-1.26191 -8.028969,-1.81327 -11.627848,-3.94458 -1.544317,-0.93535 -3.479246,-0.98677 -5.148204,-0.20402 -2.592558,1.07824 -5.269689,1.81883 -7.959082,2.42837 -4.292131,0.95891 -8.589778,2.58312 -12.215844,5.53538 -3.949585,3.18588 -7.025903,7.9708 -7.98207,13.32227 -0.316561,1.83447 -0.436892,3.71507 -0.232564,5.54876 0.535074,1.29343 2.431302,1.30031 3.088903,0.0274 2.593268,-3.29736 3.455931,-7.81121 6.111796,-11.05962 2.176631,-2.45751 5.143273,-3.70637 8.052695,-4.43286 3.990075,-1.08191 8.062601,-1.63525 12.125903,-1.77993 1.638239,-0.0582 3.299556,-0.21253 4.875389,-0.84532 2.308783,-0.80275 4.599691,-1.68121 6.926253,-2.4077 1.334214,-0.44798 2.673283,-0.87993 3.987619,-1.40867 0.195126,-0.20444 0.21719,-0.60801 -0.0029,-0.77944 z"
             id="path10" />
        </g>
      </g>
      <g
         inkscape:groupmode="layer"
         id="layer5"
         inkscape:label="body"
         style="display:inline"
         transform="translate(1.6439037,41.919546)">
        <ellipse
           style="display:inline;fill:#b03a29;fill-opacity:1;stroke:#45a635;stroke-width:2.19732;stroke-opacity:0"
           id="path1"
           cx="105.25177"
           cy="136.83258"
           rx="60.811012"
           ry="43.155331" />
        <g
           inkscape:groupmode="layer"
           id="layer9"
           inkscape:label="eyes"
           style="display:inline"
           transform="translate(-1.6439037,-41.919546)">
          <g
             inkscape:groupmode="layer"
             id="layer10"
             inkscape:label="left"
             style="display:inline"
             transform="translate(1.6439037,41.919546)">
            <path
               style="display:inline;fill:#b03a29;fill-opacity:1;stroke:#b03a29;stroke-width:1;stroke-dasharray:none;stroke-opacity:0"
               d="m 90.57195,122.05986 c 0.0628,8.2424 5.95901,14.79486 5.95915,14.79513 l -6.26738,1.23292 c 0.0178,-0.089 -5.836743,-6.16022 -5.650917,-14.89787 0.209904,-9.86975 5.959147,-1.13018 5.959147,-1.13018 z"
               id="path30"
               sodipodi:nodetypes="cccscc"
               transform="translate(-1.6439037,-41.919546)" />
            <ellipse
               style="display:inline;fill:#ffffff;fill-opacity:1;stroke:#b03a29;stroke-width:1;stroke-dasharray:none;stroke-opacity:1"
               id="ellipse30"
               cx="-86.229454"
               cy="111.88248"
               rx="12.350664"
               ry="11.042947"
               transform="matrix(-1,0,0,1,-1.6439037,-41.919546)" />
            <ellipse
               style="display:inline;fill:#000000;fill-opacity:1;stroke:#b03a29;stroke-width:1;stroke-dasharray:none;stroke-opacity:0"
               id="path31"
               cx="87.486496"
               cy="71.663925"
               rx="5.8050351"
               ry="5.4968028" />
            <path
               style="display:inline;fill:#000000;fill-opacity:1;stroke:#000000;stroke-width:2;stroke-dasharray:none;stroke-opacity:1"
               d="M 89.378555,46.59682 C 81.113184,47.023553 75.016021,51.650623 68.627387,56.929193 74.732999,47.738826 80.344008,47.683955 89.378555,46.59682 Z"
               id="path34"
               sodipodi:nodetypes="ccc" />
          </g>
          <g
             inkscape:groupmode="layer"
             id="layer11"
             inkscape:label="right"
             style="display:inline"
             transform="translate(1.6439037,41.919546)">
            <path
               style="display:inline;fill:#b03a29;fill-opacity:1;stroke:#b03a29;stroke-width:1;stroke-dasharray:none;stroke-opacity:0"
               d="m 112.45627,89.570712 c 1.36941,8.128095 -3.29938,15.604868 -3.29947,15.605158 l 6.38626,0.12587 c -0.033,-0.0846 4.67836,-7.08017 2.97808,-15.65281 -1.92058,-9.683358 -6.06487,-0.07821 -6.06487,-0.07821 z"
               id="path29"
               sodipodi:nodetypes="cccscc"
               transform="rotate(10,170.84484,136.21715)" />
            <ellipse
               style="display:inline;fill:#b03a29;fill-opacity:1;stroke:#b03a29;stroke-width:1;stroke-opacity:1;stroke-dasharray:none"
               id="path28"
               cx="99.536514"
               cy="97.560387"
               transform="translate(26.249376,-27.597448)"
               rx="12.350664"
               ry="11.042947" />
            <path
               style="fill:#000000;fill-opacity:1;stroke:#000000;stroke-width:1;stroke-dasharray:none;stroke-opacity:1"
               d="m 113.41761,74.04895 c 7.76756,-1.118209 15.22487,-1.180368 23.76011,0.723012 -7.42767,-2.188819 -15.18919,-1.774322 -23.76011,-0.723012 z"
               id="path32"
               sodipodi:nodetypes="ccc" />
            <path
               style="fill:#000000;fill-opacity:1;stroke:#000000;stroke-width:2;stroke-dasharray:none;stroke-opacity:1"
               d="m 116.67444,56.511227 c 7.91286,-2.425926 15.22487,-0.163254 23.0336,2.611937 -8.88069,-6.547877 -14.17208,-4.680361 -23.0336,-2.611937 z"
               id="path33"
               sodipodi:nodetypes="ccc" />
          </g>
        </g>
        <text
           xml:space="preserve"
           style="display:inline;font-style:normal;font-variant:normal;font-weight:normal;font-stretch:normal;font-size:30.4094px;font-family:'Comic Sans MS';-inkscape-font-specification:'Comic Sans MS, Normal';font-variant-ligatures:normal;font-variant-caps:normal;font-variant-numeric:normal;font-variant-east-asian:normal;fill:#000000;fill-opacity:1;stroke:#000000;stroke-width:0;stroke-dasharray:none;stroke-opacity:1"
           x="107.75939"
           y="130.37114"
           id="text34"
           transform="scale(0.97587604,1.0247203)"><tspan
             sodipodi:role="line"
             id="tspan34"
             style="font-style:normal;font-variant:normal;font-weight:normal;font-stretch:normal;font-size:30.4094px;font-family:'Comic Sans MS';-inkscape-font-specification:'Comic Sans MS, Normal';font-variant-ligatures:normal;font-variant-caps:normal;font-variant-numeric:normal;font-variant-east-asian:normal;stroke-width:0;stroke-dasharray:none"
             x="107.75939"
             y="130.37114">3</tspan></text>
      </g>
      <g
         inkscape:groupmode="layer"
         id="layer8"
         inkscape:label="arms"
         style="display:inline">
        <g
           inkscape:groupmode="layer"
           id="layer4"
           inkscape:label="right"
           transform="rotate(10,-67.904527,166.57187)"
           style="display:inline">
          <path
             style="fill:#b03a29;fill-opacity:1;stroke:#45a635;stroke-width:2.38125;stroke-opacity:0"
             id="path11"
             clip-path="url(#clipPath20)"
             transform="rotate(60,109.68252,64.764666)"
             d="M 157.0258,23.756927 A 25.718441,18.017441 0 0 1 131.30736,41.774368 25.718441,18.017441 0 0 1 105.58892,23.756927 25.718441,18.017441 0 0 1 131.30736,5.7394867 25.718441,18.017441 0 0 1 157.0258,23.756927 Z"
             sodipodi:type="arc"
             sodipodi:ry="18.017441"
             sodipodi:rx="25.718441"
             sodipodi:cy="23.756927"
             sodipodi:cx="131.30736"
             inkscape:path-effect="#path-effect13;#path-effect21" />
          <path
             style="display:inline;fill:#b03a29;fill-opacity:1;stroke:#000000;stroke-width:2.38125;stroke-opacity:0"
             d="m 171.2654,82.313607 c 3.39892,17.020995 5.31127,41.611433 -6.24798,51.436883 l -7.70101,-7.4104 c 10.5443,-6.00394 9.36988,-26.552008 5.23088,-40.684538 z"
             id="path14"
             sodipodi:nodetypes="ccccc" />
        </g>
        <g
           inkscape:groupmode="layer"
           id="g23"
           inkscape:label="left"
           transform="rotate(10,-67.904527,166.57187)"
           style="display:inline">
          <path
             style="fill:#b03a29;fill-opacity:1;stroke:#45a635;stroke-width:2.38125;stroke-opacity:0"
             id="path22"
             clip-path="url(#clipath_lpe_path-effect26)"
             transform="matrix(-0.17364818,0.98480775,0.98480775,0.17364818,31.74646,-47.168043)"
             d="M 157.0258,23.756927 A 25.718441,18.017441 0 0 1 131.30736,41.774368 25.718441,18.017441 0 0 1 105.58892,23.756927 25.718441,18.017441 0 0 1 131.30736,5.7394867 25.718441,18.017441 0 0 1 157.0258,23.756927 Z"
             sodipodi:type="arc"
             sodipodi:ry="18.017441"
             sodipodi:rx="25.718441"
             sodipodi:cy="23.756927"
             sodipodi:cx="131.30736"
             inkscape:path-effect="#path-effect24;#path-effect26" />
          <path
             style="display:inline;fill:#b03a29;fill-opacity:1;stroke:#000000;stroke-width:2.38125;stroke-opacity:0"
             d="m 24.614148,109.64761 c 2.627582,17.157 9.240987,40.91852 23.463631,46.19793 l 4.702076,-9.5974 C 40.817986,144.21264 34.893726,124.5021 33.949504,109.80624 Z"
             id="path23"
             sodipodi:nodetypes="ccccc" />
        </g>
      </g>
      <g
         inkscape:groupmode="layer"
         id="layer12"
         inkscape:label="heart"
         style="display:inline"
         transform="matrix(0.48445933,0,0,0.48445933,99.983847,126.67992)">
        <ellipse
           style="display:inline;fill:#f25db3;fill-opacity:1;stroke:#000000;stroke-width:0;stroke-dasharray:none;stroke-opacity:0"
           id="path35"
           cx="63.015457"
           cy="-9.371913"
           rx="25.137236"
           ry="24.120121"
           transform="translate(1.6439037,41.919546)" />
        <ellipse
           style="display:inline;fill:#f25db3;fill-opacity:1;stroke:#000000;stroke-width:0;stroke-dasharray:none;stroke-opacity:0"
           id="ellipse35"
           cx="104.86241"
           cy="-9.9531202"
           rx="25.137236"
           ry="24.120121"
           transform="translate(1.6439037,41.919546)" />
        <path
           style="display:inline;fill:#f25db3;fill-opacity:1;stroke:#000000;stroke-width:0;stroke-dasharray:none;stroke-opacity:0"
           d="m 39.522127,34.000651 c -0.485821,6.971794 3.93566,16.994737 47.36843,52.599301 C 136.65301,40.471813 129.97001,39.850088 131.93415,32.257029 Z"
           id="path36"
           sodipodi:nodetypes="cccc" />
      </g>
    </g>
  </g>
</svg>
